<svg width="74" height="55" viewBox="0 0 74 55" fill="none" xmlns="http://www.w3.org/2000/svg">
<path d="M24.4252 1.10847L27.9805 10.5144C28.4179 11.6709 29.5855 12.4507 30.8863 12.4507H56.2632C56.633 12.4507 56.8996 12.79 56.7907 13.1257L56.2857 14.689C56.2144 14.9074 56.0004 15.0567 55.7601 15.0567H34.1544C33.4711 15.0567 32.7935 15.245 32.2472 15.634C31.1303 16.4316 30.738 17.7923 31.1904 18.9683L34.0699 26.5304C34.5092 27.6832 35.6749 28.4595 36.972 28.4595H37.6703C38.0307 27.0828 39.3465 26.0649 40.9121 26.0649C42.4757 26.0649 43.7878 27.081 44.152 28.4524L49.2165 28.4471C49.5825 27.0793 50.8928 26.0649 52.4545 26.0649C54.0144 26.0649 55.3247 27.0775 55.6926 28.4418L57.0554 28.44C57.4364 28.44 57.7743 28.2037 57.8888 27.8591L59.1165 24.1482C59.2929 23.6153 58.8705 23.0717 58.2793 23.0735L39.1738 23.093C38.943 23.093 38.7346 22.9545 38.6558 22.7484L38.0363 21.1213C37.9068 20.782 38.1733 20.4231 38.5544 20.4231H58.0784C59.4431 20.4231 60.6275 19.5936 61.0292 18.359L63.4545 10.8591C63.7379 9.97797 63.5634 9.00984 62.9852 8.26731C62.4033 7.52833 61.4779 7.08424 60.5037 7.08424H33.5537C33.0469 7.08424 32.5926 6.78225 32.4218 6.33105L30.2368 0.55068C30.1111 0.220272 29.7807 0 29.4109 0H25.2493C24.643 0 24.2206 0.568444 24.4252 1.10847Z" fill="white"/>
<path d="M49.9238 29.2247C49.9238 30.5481 51.0576 31.6192 52.4542 31.6192C53.8527 31.6192 54.9864 30.5463 54.9864 29.2247C54.9864 27.903 53.8527 26.8301 52.4542 26.8301C51.0576 26.8283 49.9238 27.9012 49.9238 29.2247Z" fill="white"/>
<path d="M40.9122 31.6192C42.3097 31.6192 43.4426 30.5471 43.4426 29.2247C43.4426 27.9022 42.3097 26.8301 40.9122 26.8301C39.5147 26.8301 38.3818 27.9022 38.3818 29.2247C38.3818 30.5471 39.5147 31.6192 40.9122 31.6192Z" fill="white"/>
<path d="M25.9094 31.6338H35.8863C36.4157 31.6338 36.8456 31.227 36.8456 30.7261C36.8456 30.2252 36.4157 29.8184 35.8863 29.8184H25.9094C25.3801 29.8184 24.9502 30.2252 24.9502 30.7261C24.9502 31.227 25.3782 31.6338 25.9094 31.6338Z" fill="white"/>
<path d="M18.9846 31.6338H22.6394C23.1687 31.6338 23.5986 31.227 23.5986 30.7261C23.5986 30.2252 23.1687 29.8184 22.6394 29.8184H18.9846C18.4553 29.8184 18.0254 30.2252 18.0254 30.7261C18.0254 31.227 18.4553 31.6338 18.9846 31.6338Z" fill="white"/>
<path d="M15.3733 31.6338H15.7168C16.2461 31.6338 16.676 31.227 16.676 30.7261C16.676 30.2252 16.2461 29.8184 15.7168 29.8184H15.3733C14.8439 29.8184 14.4141 30.2252 14.4141 30.7261C14.4141 31.227 14.8439 31.6338 15.3733 31.6338Z" fill="white"/>
<path d="M29.6907 28.6553H32.1197C32.649 28.6553 33.0789 28.2485 33.0789 27.7476C33.0789 27.2466 32.649 26.8398 32.1197 26.8398H29.6907C29.1613 26.8398 28.7314 27.2466 28.7314 27.7476C28.7314 28.2485 29.1613 28.6553 29.6907 28.6553Z" fill="white"/>
<path d="M19.1545 28.6553H26.4153C26.9446 28.6553 27.3745 28.2485 27.3745 27.7476C27.3745 27.2466 26.9446 26.8398 26.4153 26.8398H19.1545C18.6252 26.8398 18.1953 27.2466 18.1953 27.7476C18.1953 28.2485 18.6252 28.6553 19.1545 28.6553Z" fill="white"/>
<path d="M4.41 39.545C5.55 39.545 6.535 39.76 7.365 40.19C8.205 40.61 8.845 41.215 9.285 42.005C9.735 42.795 9.96 43.725 9.96 44.795C9.96 45.865 9.735 46.795 9.285 47.585C8.845 48.365 8.205 48.965 7.365 49.385C6.535 49.795 5.55 50 4.41 50H1.155V39.545H4.41ZM4.41 48.875C5.76 48.875 6.79 48.52 7.5 47.81C8.21 47.09 8.565 46.085 8.565 44.795C8.565 43.495 8.205 42.48 7.485 41.75C6.775 41.02 5.75 40.655 4.41 40.655H2.52V48.875H4.41Z" fill="#FAFAFA"/>
<path d="M17.6372 45.1592V46.1771H12.7773V45.1592H17.6372Z" fill="white"/>
<path d="M19.7246 39.4859C20.4717 39.3616 21.6524 39.2656 22.8519 39.2656C24.5638 39.2656 25.6657 39.5001 26.4917 40.033C27.1806 40.4398 27.5935 41.0669 27.5935 41.8982C27.5935 42.9179 26.7469 43.8114 25.3504 44.2182V44.2484C26.6099 44.5006 28.0853 45.3302 28.0853 46.897C28.0853 47.8047 27.633 48.4957 26.9647 49.0127C26.0393 49.6859 24.5451 50.0003 22.3807 50.0003C21.2 50.0003 20.2953 49.9382 19.7246 49.8742V39.4859ZM21.4366 43.8114H22.9908C24.8004 43.8114 25.8628 43.0582 25.8628 42.0403C25.8628 40.8022 24.684 40.3155 22.9514 40.3155C22.1649 40.3155 21.7125 40.3634 21.4366 40.4096V43.8114ZM21.4366 48.8741C21.7707 48.9221 22.2625 48.9381 22.8726 48.9381C24.6427 48.9381 26.2758 48.4194 26.2758 46.8846C26.2758 45.4421 24.7215 44.847 22.8538 44.847H21.4384V48.8741H21.4366Z" fill="white"/>
<path d="M32.5357 46.5863L31.1598 49.9099H29.3896L33.8948 39.3457H35.9596L40.4835 49.9099H38.6552L37.2398 46.5863H32.5357ZM36.8831 45.5204L35.5842 42.481C35.2895 41.79 35.0924 41.1647 34.8971 40.5536H34.8577C34.6606 41.1807 34.4448 41.8238 34.1895 42.465L32.8905 45.5222H36.8831V45.5204Z" fill="white"/>
<path d="M41.5332 49.1105L48.8897 40.5377V40.4897H42.162V39.3457H51.1122V40.1771L43.7951 48.7179V48.7641H51.2117V49.9081H41.5332V49.1105Z" fill="white"/>
<path d="M55.4674 46.5863L54.0914 49.9099H52.3213L56.8264 39.3457H58.8912L63.4151 49.9099H61.5868L60.1696 46.5863H55.4674ZM59.8129 45.5204L58.5139 42.481C58.2192 41.79 58.0221 41.1647 57.8269 40.5536H57.7875C57.5904 41.1807 57.3745 41.8238 57.1192 42.465L55.8203 45.5222H59.8129V45.5204Z" fill="white"/>
<path d="M65.3671 39.4859C66.2325 39.3438 67.4714 39.2656 68.6521 39.2656C70.4804 39.2656 71.6611 39.5321 72.4871 40.1289C73.1572 40.5979 73.5289 41.3191 73.5289 42.1345C73.5289 43.529 72.427 44.4527 71.0304 44.8293V44.8772C72.0534 45.1597 72.6616 45.9111 72.977 47.0089C73.4106 48.4815 73.7241 49.5012 74 49.908H72.2299C72.014 49.6113 71.7174 48.7 71.3458 47.3855C70.9516 45.9289 70.2439 45.38 68.6896 45.332H67.0772V49.908H65.3652V39.4859H65.3671ZM67.0791 44.2964H68.8304C70.6587 44.2964 71.8207 43.497 71.8207 42.2908C71.8207 40.9283 70.5818 40.3315 68.7722 40.3172C67.9463 40.3172 67.3569 40.3794 67.0809 40.4416V44.2964H67.0791Z" fill="white"/>
</svg>
